<svg xmlns="http://www.w3.org/2000/svg" xmlns:xlink="http://www.w3.org/1999/xlink" xml:space="preserve" version="1.1" style="shape-rendering:geometricPrecision;text-rendering:geometricPrecision;image-rendering:optimizeQuality;" viewBox="0 0 0.484 0.4575" x="0px" y="0px" fill-rule="evenodd" clip-rule="evenodd"><defs><style type="text/css">
   
    .fil0 {fill:black;fill-rule:nonzero}
   
  </style></defs><g><path class="fil0" d="M0.019 0.08l0.106 0 0.126 -0.077c0.012,-0.008 0.028,0.001 0.028,0.016l0 0.328c0,0.015 -0.017,0.024 -0.029,0.015l-0.125 -0.077 -0.106 0c-0.011,0 -0.019,-0.008 -0.019,-0.018l0 -0.168c0,-0.01 0.008,-0.019 0.019,-0.019zm0.434 0.034c0.007,-0.008 0.019,-0.008 0.026,0 0.007,0.007 0.007,0.019 0,0.026l-0.043 0.043 0.043 0.042c0.007,0.008 0.007,0.02 0,0.027 -0.007,0.007 -0.019,0.007 -0.026,0l-0.043 -0.043 -0.043 0.043c-0.007,0.007 -0.019,0.007 -0.026,0 -0.007,-0.008 -0.007,-0.019 0,-0.027l0.043 -0.042 -0.043 -0.043c-0.007,-0.007 -0.007,-0.019 0,-0.026 0.007,-0.008 0.019,-0.008 0.026,0l0.043 0.042 0.043 -0.042z"/></g><text x="0" y="15.366" fill="#000000" font-size="5px" font-weight="bold" font-family="'Helvetica Neue', Helvetica, Arial-Unicode, Arial, Sans-serif">Created by Deemak Daksina</text><text x="0" y="20.366" fill="#000000" font-size="5px" font-weight="bold" font-family="'Helvetica Neue', Helvetica, Arial-Unicode, Arial, Sans-serif">from the Noun Project</text></svg>