<svg xmlns="http://www.w3.org/2000/svg" xmlns:xlink="http://www.w3.org/1999/xlink" xml:space="preserve" version="1.1" style="shape-rendering:geometricPrecision;text-rendering:geometricPrecision;image-rendering:optimizeQuality;" viewBox="0 0 0.599 0.51" x="0px" y="0px" fill-rule="evenodd" clip-rule="evenodd"><defs><style type="text/css">
   
    .fil0 {fill:black;fill-rule:nonzero}
   
  </style></defs><g><path class="fil0" d="M0.021 0.09l0.119 0 0.14 -0.087c0.014,-0.008 0.032,0.002 0.032,0.018l0 0.366c0,0.018 -0.02,0.027 -0.033,0.017l-0.139 -0.086 -0.119 0c-0.012,0 -0.021,-0.009 -0.021,-0.02l0 -0.188c0,-0.011 0.009,-0.02 0.021,-0.02zm0.385 0.028c-0.01,0.006 -0.023,0.002 -0.029,-0.008 -0.005,-0.01 -0.002,-0.022 0.008,-0.028l0.127 -0.073c0.01,-0.006 0.022,-0.003 0.028,0.007 0.006,0.01 0.003,0.023 -0.007,0.029l-0.127 0.073zm-0.021 0.208c-0.01,-0.006 -0.013,-0.018 -0.008,-0.028 0.006,-0.01 0.019,-0.014 0.029,-0.008l0.127 0.073c0.01,0.006 0.013,0.019 0.007,0.029 -0.006,0.01 -0.018,0.013 -0.028,0.007l-0.127 -0.073zm0.01 -0.101c-0.011,0 -0.021,-0.01 -0.021,-0.021 0,-0.011 0.01,-0.021 0.021,-0.021l0.184 0c0.011,0 0.02,0.01 0.02,0.021 0,0.011 -0.009,0.021 -0.02,0.021l-0.184 0z"/></g><text x="0" y="15.408" fill="#000000" font-size="5px" font-weight="bold" font-family="'Helvetica Neue', Helvetica, Arial-Unicode, Arial, Sans-serif">Created by Deemak Daksina</text><text x="0" y="20.408" fill="#000000" font-size="5px" font-weight="bold" font-family="'Helvetica Neue', Helvetica, Arial-Unicode, Arial, Sans-serif">from the Noun Project</text></svg>